<svg xmlns="http://www.w3.org/2000/svg" xmlns:xlink="http://www.w3.org/1999/xlink" width="15.441" height="21" viewBox="0 0 15.441 21">
  <defs>
    <clipPath id="clip-path">
      <rect id="Rectangle_8421" data-name="Rectangle 8421" width="15.441" height="21" transform="translate(0 0.115)" fill="#555"/>
    </clipPath>
  </defs>
  <g id="Group_6439" data-name="Group 6439" transform="translate(0 -0.115)" clip-path="url(#clip-path)">
    <path id="Path_824" data-name="Path 824" d="M13.874,2.194H11.038V1.239A1.23,1.23,0,0,0,9.82,0H5.294A1.23,1.23,0,0,0,4.076,1.239v.954H1.238A1.251,1.251,0,0,0,0,3.453V4.766a.41.41,0,0,0,.406.413H.9l.794,15.589a.409.409,0,0,0,.406.392H13.011a.409.409,0,0,0,.406-.392l.8-15.589H14.7a.41.41,0,0,0,.406-.413V3.453a1.251,1.251,0,0,0-1.237-1.259M4.889,1.239A.41.41,0,0,1,5.294.826H9.82a.41.41,0,0,1,.405.412v.954H4.889Zm7.741,19.094H2.485L1.712,5.179H13.4ZM14.3,4.353H.812v-.9a.427.427,0,0,1,.423-.43H13.874a.427.427,0,0,1,.423.43Z" transform="translate(0 0.044)" fill="#555"/>
    <path id="Path_825" data-name="Path 825" d="M155.109,190.014h1.083a.409.409,0,0,0,.406-.4l.338-9.864a.417.417,0,0,0-.113-.3.4.4,0,0,0-.293-.127h-1.76a.4.4,0,0,0-.293.127.417.417,0,0,0-.113.3l.338,9.864a.409.409,0,0,0,.406.4m1-9.864-.31,9.037h-.3l-.31-9.037Z" transform="translate(-148.094 -171.868)" fill="#555"/>
    <path id="Path_826" data-name="Path 826" d="M68.585,189.631a.409.409,0,0,0,.405.386h1.431a.4.4,0,0,0,.293-.127.417.417,0,0,0,.113-.3l-.338-9.864a.409.409,0,0,0-.406-.4H68.358a.4.4,0,0,0-.3.131.417.417,0,0,0-.109.309Zm1.1-9.482.31,9.037h-.629l-.577-9.037Z" transform="translate(-65.192 -171.869)" fill="#555"/>
    <path id="Path_827" data-name="Path 827" d="M233.788,190.014h1.431a.409.409,0,0,0,.405-.386l.63-9.864a.417.417,0,0,0-.109-.309.4.4,0,0,0-.3-.131h-1.722a.409.409,0,0,0-.406.4l-.338,9.864a.417.417,0,0,0,.113.3.4.4,0,0,0,.293.127m.731-9.864h.9l-.577,9.037h-.629Z" transform="translate(-223.901 -171.868)" fill="#555"/>
  </g>
</svg>
