<svg xmlns="http://www.w3.org/2000/svg" width="24" height="24" viewBox="0 0 24 24">
  <g id="Group_9155" data-name="Group 9155" transform="translate(-361.404 -599.404)">
    <circle id="Ellipse_326" data-name="Ellipse 326" cx="12" cy="12" r="12" transform="translate(361.404 599.404)" fill="#003665"/>
    <g id="google-forms" transform="translate(368.442 604.788)">
      <path id="Path_27744" data-name="Path 27744" d="M71.58,3.413,68.287.121A.414.414,0,0,0,68,0H62.235A1.236,1.236,0,0,0,61,1.235V12.813a1.236,1.236,0,0,0,1.235,1.235h8.231A1.236,1.236,0,0,0,71.7,12.813V3.7A.416.416,0,0,0,71.58,3.413ZM68.408,1.405,70.3,3.292H68.82a.412.412,0,0,1-.412-.412Zm2.058,11.819H62.235a.412.412,0,0,1-.412-.412V1.235a.412.412,0,0,1,.412-.412h5.35V2.881A1.236,1.236,0,0,0,68.82,4.116h2.058v8.7A.412.412,0,0,1,70.466,13.225Z" transform="translate(-61 0)" fill="#fff"/>
      <path id="Path_27745" data-name="Path 27745" d="M185.527,242h-4.116a.412.412,0,1,0,0,.823h4.116a.412.412,0,0,0,0-.823Z" transform="translate(-177.708 -235.36)" fill="#fff"/>
      <path id="Path_27746" data-name="Path 27746" d="M185.527,302h-4.116a.412.412,0,1,0,0,.823h4.116a.412.412,0,0,0,0-.823Z" transform="translate(-177.708 -293.714)" fill="#fff"/>
      <path id="Path_27747" data-name="Path 27747" d="M185.527,362h-4.116a.412.412,0,1,0,0,.823h4.116a.412.412,0,0,0,0-.823Z" transform="translate(-177.708 -352.068)" fill="#fff"/>
      <ellipse id="Ellipse_323" data-name="Ellipse 323" cx="0.439" cy="0.402" rx="0.439" ry="0.402" transform="translate(1.621 6.658)" fill="#fff"/>
      <circle id="Ellipse_324" data-name="Ellipse 324" cx="0.439" cy="0.439" r="0.439" transform="translate(1.621 8.267)" fill="#fff"/>
      <ellipse id="Ellipse_325" data-name="Ellipse 325" cx="0.439" cy="0.402" rx="0.439" ry="0.402" transform="translate(1.621 9.948)" fill="#fff"/>
    </g>
  </g>
</svg>
