<svg xmlns="http://www.w3.org/2000/svg" xmlns:xlink="http://www.w3.org/1999/xlink" width="50" height="50" viewBox="0 0 50 50">
  <defs>
    <clipPath id="clip-path">
      <rect id="Rectangle_8592" data-name="Rectangle 8592" width="50" height="50" transform="translate(-0.177)" fill="#fff" stroke="#707070" stroke-width="1"/>
    </clipPath>
    <clipPath id="clip-path-2">
      <rect id="Rectangle_11" data-name="Rectangle 11" width="18.76" height="19.542" fill="#fff"/>
    </clipPath>
  </defs>
  <g id="Mask_Group_674" data-name="Mask Group 674" transform="translate(0.177)" clip-path="url(#clip-path)">
    <g id="Group_8923" data-name="Group 8923" transform="translate(3.737 3.737)">
      <g id="Group_8920" data-name="Group 8920" transform="translate(0 0)">
        <g id="Ellipse_2" data-name="Ellipse 2" transform="translate(0.086 0.263)" stroke="#fff" stroke-width="1">
          <circle cx="21" cy="21" r="21" stroke="none"/>
          <circle cx="21" cy="21" r="20.5" fill="none"/>
        </g>
      </g>
      <g id="Group_8922" data-name="Group 8922" transform="translate(11.795 11.404)">
        <g id="Group_8921" data-name="Group 8921" transform="translate(0 0)" clip-path="url(#clip-path-2)">
          <path id="Path_24230" data-name="Path 24230" d="M12.613,10.748a5.862,5.862,0,1,0-6.467,0A9.387,9.387,0,0,0,0,19.541H1.563a7.817,7.817,0,0,1,15.633,0H18.76a9.387,9.387,0,0,0-6.147-8.793M9.38,10.162a4.3,4.3,0,1,1,4.3-4.3,4.3,4.3,0,0,1-4.3,4.3" transform="translate(0 0)" fill="#fff"/>
        </g>
      </g>
    </g>
  </g>
</svg>
