<svg xmlns="http://www.w3.org/2000/svg" width="12.94" height="16.988" viewBox="0 0 12.94 16.988">
  <g id="google-forms" transform="translate(-61)">
    <path id="Path_27744" data-name="Path 27744" d="M73.794,4.127,69.813.146A.5.5,0,0,0,69.461,0H62.493A1.5,1.5,0,0,0,61,1.493v14a1.5,1.5,0,0,0,1.493,1.493h9.954a1.5,1.5,0,0,0,1.493-1.493V4.479A.5.5,0,0,0,73.794,4.127ZM69.958,1.7l2.282,2.282H70.456a.5.5,0,0,1-.5-.5Zm2.488,14.293H62.493a.5.5,0,0,1-.5-.5v-14a.5.5,0,0,1,.5-.5h6.47V3.484a1.5,1.5,0,0,0,1.493,1.493h2.488V15.495A.5.5,0,0,1,72.447,15.992Z" transform="translate(0 0)" fill="#fff"/>
    <path id="Path_27745" data-name="Path 27745" d="M186.475,242H181.5a.5.5,0,1,0,0,1h4.977a.5.5,0,0,0,0-1Z" transform="translate(-116.018 -233.971)" fill="#fff"/>
    <path id="Path_27746" data-name="Path 27746" d="M186.475,302H181.5a.5.5,0,1,0,0,1h4.977a.5.5,0,0,0,0-1Z" transform="translate(-116.018 -291.98)" fill="#fff"/>
    <path id="Path_27747" data-name="Path 27747" d="M186.475,362H181.5a.5.5,0,1,0,0,1h4.977a.5.5,0,0,0,0-1Z" transform="translate(-116.018 -349.989)" fill="#fff"/>
    <ellipse id="Ellipse_323" data-name="Ellipse 323" cx="0.53" cy="0.486" rx="0.53" ry="0.486" transform="translate(62.961 8.052)" fill="#fff"/>
    <circle id="Ellipse_324" data-name="Ellipse 324" cx="0.53" cy="0.53" r="0.53" transform="translate(62.961 9.997)" fill="#fff"/>
    <ellipse id="Ellipse_325" data-name="Ellipse 325" cx="0.53" cy="0.486" rx="0.53" ry="0.486" transform="translate(62.961 12.031)" fill="#fff"/>
  </g>
</svg>
