<svg width="50" height="50" viewBox="0 0 50 50" fill="none" xmlns="http://www.w3.org/2000/svg">
<path d="M44.5591 17.033C44.4731 16.6197 44.3751 16.2087 44.2651 15.8C43.6915 13.7032 42.5179 11.8195 40.8885 10.3806C39.259 8.94156 37.2447 8.00989 35.0931 7.7C33.28 7.36293 31.4117 7.48163 29.6559 8.04542C27.9001 8.60921 26.3119 9.60044 25.0341 10.93C24.9701 10.991 24.9041 11.052 24.8211 11.13L24.8111 11.121L24.8011 11.13C24.7181 11.053 24.6521 10.992 24.5881 10.93C23.3097 9.60099 21.7212 8.61042 19.9652 8.04733C18.2093 7.48424 16.3409 7.36626 14.5281 7.704C12.3763 8.01365 10.3619 8.94523 8.73241 10.3843C7.10293 11.8233 5.9294 13.707 5.35606 15.804C5.24472 16.212 5.14606 16.6217 5.06006 17.033C4.93315 17.6896 4.87318 18.3573 4.88106 19.026C4.88337 19.782 4.95973 20.5359 5.10906 21.277C5.14806 21.477 5.19006 21.667 5.23906 21.86C5.94587 24.4357 7.17086 26.8401 8.83906 28.926C11.2904 32.1153 14.1602 34.9599 17.3711 37.383C19.4401 38.977 21.6261 40.42 23.7511 41.943C24.0519 42.1795 24.4234 42.3081 24.8061 42.3081C25.1887 42.3081 25.5602 42.1795 25.8611 41.943C27.9861 40.42 30.1721 38.977 32.2411 37.383C35.4541 34.9598 38.3266 32.1153 40.7811 28.926C42.4488 26.8398 43.6737 24.4355 44.3811 21.86C44.4281 21.667 44.4711 21.473 44.5091 21.277C44.6593 20.536 44.736 19.782 44.7381 19.026C44.7459 18.3572 44.6852 17.6894 44.5571 17.033" fill="white"/>
</svg>
