<svg id="Group_9161" data-name="Group 9161" xmlns="http://www.w3.org/2000/svg" xmlns:xlink="http://www.w3.org/1999/xlink" width="16.072" height="14.031" viewBox="0 0 16.072 14.031">
  <defs>
    <clipPath id="clip-path">
      <rect id="Rectangle_8177" data-name="Rectangle 8177" width="16.072" height="14.031" fill="none"/>
    </clipPath>
  </defs>
  <g id="Group_9056" data-name="Group 9056" clip-path="url(#clip-path)">
    <path id="Path_27750" data-name="Path 27750" d="M16.072,5.05c-.047.245-.084.492-.144.733a7.924,7.924,0,0,1-1.453,2.85,18.1,18.1,0,0,1-3.441,3.41c-.834.643-1.716,1.224-2.572,1.839a.668.668,0,0,1-.835,0A25.092,25.092,0,0,1,2.281,9.468,10.128,10.128,0,0,1,.428,6.641a5.278,5.278,0,0,1-.4-1.488A.6.6,0,0,0,0,5.05V4.2c.02-.1.043-.2.059-.3A4.631,4.631,0,0,1,4.322.015,4.554,4.554,0,0,1,7.645,1.1c.135.112.261.235.4.357l.086-.081a4.487,4.487,0,0,1,4.056-1.3,4.5,4.5,0,0,1,3.7,3.263,8.494,8.494,0,0,1,.192.9Zm-1-.467c-.008-.1-.018-.244-.032-.389A1.837,1.837,0,0,0,15,3.962a3.51,3.51,0,0,0-2.753-2.847A3.5,3.5,0,0,0,8.5,2.484a.525.525,0,0,1-.935,0A3.594,3.594,0,0,0,3.5,1.2,3.521,3.521,0,0,0,1.03,4.294,3.907,3.907,0,0,0,1.4,6.362,10.077,10.077,0,0,0,3.51,9.315,26.042,26.042,0,0,0,7.929,12.88a.17.17,0,0,0,.22,0,27.681,27.681,0,0,0,3.839-2.994,12.8,12.8,0,0,0,2.32-2.8,5.006,5.006,0,0,0,.762-2.5" transform="translate(0 0.001)" fill="#fff"/>
  </g>
</svg>
