<svg xmlns="http://www.w3.org/2000/svg" xmlns:xlink="http://www.w3.org/1999/xlink" width="50" height="50" viewBox="0 0 50 50">
  <defs>
    <clipPath id="clip-path">
      <rect id="Rectangle_8590" data-name="Rectangle 8590" width="50" height="50" transform="translate(0.101)" fill="#fff" stroke="#707070" stroke-width="1"/>
    </clipPath>
    <clipPath id="clip-path-2">
      <rect id="Rectangle_8595" data-name="Rectangle 8595" width="39.858" height="34.792" fill="none"/>
    </clipPath>
  </defs>
  <g id="Mask_Group_672" data-name="Mask Group 672" transform="translate(-0.101)" clip-path="url(#clip-path)">
    <g id="Group_9063" data-name="Group 9063" transform="translate(4.982 7.515)">
      <g id="Group_9062" data-name="Group 9062" transform="translate(0 0)" clip-path="url(#clip-path-2)">
        <path id="Path_27833" data-name="Path 27833" d="M39.678,9.517q-.129-.62-.294-1.233a11.158,11.158,0,0,0-9.172-8.1,11.13,11.13,0,0,0-10.059,3.23c-.064.061-.13.122-.213.2l-.01-.009-.01.009c-.083-.077-.149-.138-.213-.2A11.13,11.13,0,0,0,9.647.188a11.156,11.156,0,0,0-9.172,8.1Q.308,8.9.179,9.517A9.888,9.888,0,0,0,0,11.51a11.575,11.575,0,0,0,.228,2.251c.039.2.081.39.13.583a19.631,19.631,0,0,0,3.6,7.066,44.791,44.791,0,0,0,8.532,8.457c2.069,1.594,4.255,3.037,6.38,4.56a1.707,1.707,0,0,0,2.11,0c2.125-1.523,4.311-2.966,6.38-4.56A44.864,44.864,0,0,0,35.9,21.41a19.651,19.651,0,0,0,3.6-7.066c.047-.193.09-.387.128-.583a11.481,11.481,0,0,0,.229-2.251,9.8,9.8,0,0,0-.181-1.993" transform="translate(0 0.001)" fill="#fff"/>
      </g>
    </g>
    <text id="_0" data-name="0" transform="translate(25.101 31)" font-size="15" font-family="Poppins-Medium, Poppins" font-weight="500"><tspan x="-4.807" y="0">0</tspan></text>
  </g>
</svg>
